<svg id="Layer_1" data-name="Layer 1" xmlns="http://www.w3.org/2000/svg" viewBox="0 0 75 75"><defs><style>.cls-1{fill:#65666b;}</style></defs><title>Artboard 1</title><path class="cls-1" d="M37.5,3A34.5,34.5,0,1,1,3,37.5,34.54,34.54,0,0,1,37.5,3m0-3A37.5,37.5,0,1,0,75,37.5,37.5,37.5,0,0,0,37.5,0Z"/><path class="cls-1" d="M60.57,43.83a7.78,7.78,0,0,1-2,5.09,15.56,15.56,0,0,1-7.44,4.85,22.26,22.26,0,0,1-6.72,1.1,20.35,20.35,0,0,1-2.36-.14,45.36,45.36,0,0,1-12.76-3.31,16.7,16.7,0,0,1-10,3.5q-6.24,0-7.72-3.46a4.88,4.88,0,0,1-.34-1.92,3.7,3.7,0,0,1,1.1-2.35,6.15,6.15,0,0,1,4.8-1.92,10.75,10.75,0,0,1,3.65.58,29.47,29.47,0,0,1,4,1.87c1.6.86,2.79,1.49,3.56,1.87a30.24,30.24,0,0,0,4.36-5.73,79,79,0,0,0,4-7.2Q38.4,33.12,41,28.81a49.65,49.65,0,0,1,5.37-7.35l2.74-3.12a48.8,48.8,0,0,0-8.35-.67,47.05,47.05,0,0,0-10,1.2q-7.5,1.59-11.52,6.43a8.87,8.87,0,0,0-2.45,5.57,4.38,4.38,0,0,0,3.41,4.56,7.72,7.72,0,0,0,2.11.34,7.72,7.72,0,0,0,2.11-.34A5.52,5.52,0,0,0,26.76,34a8,8,0,0,0,1.63-2.09,3.79,3.79,0,0,0,.5-1.51q0-.51.48-.51c.32,0,.5.26.53.67v.05A7.1,7.1,0,0,1,26.16,36,8.33,8.33,0,0,1,22.22,37l-2.49-.44c-3.4-1.18-5.09-3.39-5.09-6.62a9.71,9.71,0,0,1,2.93-6.53q4.7-5.28,13.82-6.57a65,65,0,0,1,9.19-.63,46,46,0,0,1,9.72,1.06,8.68,8.68,0,0,1,2.35-1.54,7,7,0,0,1,1.18-.38c.11,0,.18,0,.22.05.19,0,.23.1.12.31a3.66,3.66,0,0,1-1.06.89A2.69,2.69,0,0,0,52,17.67q6.53,1.68,9.41,4.8A5.32,5.32,0,0,1,63,26a7.19,7.19,0,0,1-1,3.62,8.64,8.64,0,0,1-4.51,3.63,19.86,19.86,0,0,1-6.29,1.37,22.78,22.78,0,0,1,5.71,2.68A7.48,7.48,0,0,1,60.57,43.83ZM27.31,50.5q-5.61-2.69-7.1-3.21a8.9,8.9,0,0,0-3-.53,2.86,2.86,0,0,0-2.32,1,3,3,0,0,0-.87,1.87,3.51,3.51,0,0,0,.39,1.61q1.05,2.16,4.41,2.16A13.71,13.71,0,0,0,27.31,50.5Zm16.46,3a13.93,13.93,0,0,0,9.12-3.07Q57,47.19,57,43.4c0-2.62-1.39-4.61-4.17-5.95A31.38,31.38,0,0,0,49,36q-2.23-.69-3.6-1.17c-.91-.32-1.43-.63-1.56-.92,0-.6.46-.92,1.39-1q.91,0,2.79.15c1.24.09,2.32.13,3.21.12a8,8,0,0,0,3.24-1,10.53,10.53,0,0,0,3.24-2.43,7,7,0,0,0,2.16-4.51q0-4.52-8.45-6.48-2.54,3.51-9.12,14.81T32.21,48.82l-1.83,1.73a40.44,40.44,0,0,0,11.67,2.88A14.9,14.9,0,0,0,43.77,53.53Z"/></svg>