<svg xmlns="http://www.w3.org/2000/svg" viewBox="0 0 75 75"><defs><style>.cls-1{fill:#9ca588;}</style></defs><title>Artboard 1 copy</title><g id="Layer_2" data-name="Layer 2"><path class="cls-1" d="M20.21,47.29q1.48.52,7.1,3.21a13.71,13.71,0,0,1-8.45,2.93q-3.36,0-4.41-2.16a3.51,3.51,0,0,1-.39-1.61,3,3,0,0,1,.87-1.87,2.86,2.86,0,0,1,2.32-1A8.9,8.9,0,0,1,20.21,47.29Z"/><path class="cls-1" d="M59.9,25.35a7,7,0,0,1-2.16,4.51,10.53,10.53,0,0,1-3.24,2.43,8,8,0,0,1-3.24,1c-.89,0-2,0-3.21-.12S45.87,33,45.26,33c-.93,0-1.39.36-1.39,1,.13.29.65.6,1.56.92s2.11.71,3.6,1.17a31.38,31.38,0,0,1,3.77,1.42C55.58,38.79,57,40.78,57,43.4s-1.36,4.88-4.08,7.06a13.93,13.93,0,0,1-9.12,3.07,14.9,14.9,0,0,1-1.72-.1,40.44,40.44,0,0,1-11.67-2.88l1.83-1.73Q35.75,45,42.33,33.68t9.12-14.81Q59.91,20.84,59.9,25.35Z"/><path class="cls-1" d="M37.5,0A37.5,37.5,0,1,0,75,37.5,37.5,37.5,0,0,0,37.5,0ZM61.92,29.62a8.64,8.64,0,0,1-4.51,3.63,19.86,19.86,0,0,1-6.29,1.37,22.78,22.78,0,0,1,5.71,2.68,7.48,7.48,0,0,1,3.74,6.53,7.78,7.78,0,0,1-2,5.09,15.56,15.56,0,0,1-7.44,4.85,22.26,22.26,0,0,1-6.72,1.1,20.35,20.35,0,0,1-2.36-.14,45.36,45.36,0,0,1-12.76-3.31,16.7,16.7,0,0,1-10,3.5q-6.24,0-7.72-3.46a4.88,4.88,0,0,1-.34-1.92,3.7,3.7,0,0,1,1.1-2.35,6.15,6.15,0,0,1,4.8-1.92,10.75,10.75,0,0,1,3.65.58,29.47,29.47,0,0,1,4,1.87c1.6.86,2.79,1.49,3.56,1.87a30.24,30.24,0,0,0,4.36-5.73,79,79,0,0,0,4-7.2Q38.4,33.12,41,28.81a49.65,49.65,0,0,1,5.37-7.35l2.74-3.12a48.8,48.8,0,0,0-8.35-.67,47.05,47.05,0,0,0-10,1.2q-7.5,1.59-11.52,6.43a8.87,8.87,0,0,0-2.45,5.57,4.38,4.38,0,0,0,3.41,4.56,7.72,7.72,0,0,0,2.11.34,7.72,7.72,0,0,0,2.11-.34A5.52,5.52,0,0,0,26.76,34a8,8,0,0,0,1.63-2.09,3.79,3.79,0,0,0,.5-1.51q0-.51.48-.51c.32,0,.5.26.53.67v.05A7.1,7.1,0,0,1,26.16,36,8.33,8.33,0,0,1,22.22,37l-2.49-.44c-3.4-1.18-5.09-3.39-5.09-6.62a9.71,9.71,0,0,1,2.93-6.53q4.7-5.28,13.82-6.57a65,65,0,0,1,9.19-.63,46,46,0,0,1,9.72,1.06,8.68,8.68,0,0,1,2.35-1.54,7,7,0,0,1,1.18-.38c.11,0,.18,0,.22.05.19,0,.23.1.12.31a3.66,3.66,0,0,1-1.06.89A2.69,2.69,0,0,0,52,17.67q6.53,1.68,9.41,4.8A5.32,5.32,0,0,1,63,26,7.19,7.19,0,0,1,61.92,29.62Z"/></g></svg>